<?xml version="1.0" encoding="utf-8"?>
<!-- Generator: Adobe Illustrator 23.0.1, SVG Export Plug-In . SVG Version: 6.00 Build 0)  -->
<svg version="1.1" id="Layer_1" xmlns="http://www.w3.org/2000/svg" xmlns:xlink="http://www.w3.org/1999/xlink" x="0px" y="0px"
	 viewBox="0 0 288 560" style="enable-background:new 0 0 288 560;" xml:space="preserve">
<style type="text/css">
	.st0{fill:url(#SVGID_1_);}
</style>
<linearGradient id="SVGID_1_" gradientUnits="userSpaceOnUse" x1="5.3241" y1="280.1859" x2="232.3796" y2="280.1859">
	<stop  offset="0" style="stop-color:#09262D"/>
	<stop  offset="1" style="stop-color:#FF00FF"/>
</linearGradient>
<path class="st0" d="M61.19,122.26c2.73-30.95,21.69-71.96,52.59-80c46.96-12.22,110.06,54.69,117.78,120
	c6.62,56.08-28.57,102.69-37.78,114.07c-39.3,48.59-82.8,45.93-88.15,78.52c-5.79,35.23,42.99,50.87,41.48,97.78
	c-0.98,30.48-22.85,63.42-46.67,66.67c-35.87,4.9-74.96-57.73-88.15-107.41C-3.05,354.06,5,269.73,56,225.96
	c32.57-27.95,73.97-31.9,77.78-61.48c1.72-13.4-4.67-28.85-12.59-30.37c-15.13-2.89-28.9,46.42-44.03,44.03
	C65.86,176.35,59.05,146.54,61.19,122.26z"/>
</svg>
